<mxfile host="app.diagrams.net" modified="2022-01-09T10:52:20.866Z" agent="5.0 (Macintosh; Intel Mac OS X 10_15_7) AppleWebKit/537.36 (KHTML, like Gecko) Chrome/96.0.4664.110 Safari/537.36" etag="-m28A8mVjQ1_n5yOBE43" version="15.8.9" type="github">
  <diagram id="zOvcM4MbX52RDbkFWbiI" name="Page-1">
    <mxGraphModel dx="2163" dy="1295" grid="1" gridSize="10" guides="1" tooltips="1" connect="1" arrows="1" fold="1" page="1" pageScale="1" pageWidth="827" pageHeight="1169" math="0" shadow="0">
      <root>
        <mxCell id="0" />
        <mxCell id="1" parent="0" />
        <mxCell id="_iUUSOAj2kYCMJGXZSjO-76" value="mask" style="text;html=1;align=center;verticalAlign=middle;resizable=0;points=[];autosize=1;strokeColor=none;fillColor=none;fontSize=16;" vertex="1" parent="1">
          <mxGeometry x="25" y="250" width="50" height="20" as="geometry" />
        </mxCell>
        <mxCell id="_iUUSOAj2kYCMJGXZSjO-77" value="pending" style="text;html=1;align=center;verticalAlign=middle;resizable=0;points=[];autosize=1;strokeColor=none;fillColor=none;fontSize=16;" vertex="1" parent="1">
          <mxGeometry x="15" y="330" width="70" height="20" as="geometry" />
        </mxCell>
        <mxCell id="_iUUSOAj2kYCMJGXZSjO-101" value="1" style="rounded=0;whiteSpace=wrap;html=1;" vertex="1" parent="1">
          <mxGeometry x="752" y="240" width="41.5625" height="40" as="geometry" />
        </mxCell>
        <mxCell id="_iUUSOAj2kYCMJGXZSjO-102" value="1" style="rounded=0;whiteSpace=wrap;html=1;" vertex="1" parent="1">
          <mxGeometry x="793.5625" y="240" width="41.5625" height="40" as="geometry" />
        </mxCell>
        <mxCell id="_iUUSOAj2kYCMJGXZSjO-103" value="1" style="rounded=0;whiteSpace=wrap;html=1;" vertex="1" parent="1">
          <mxGeometry x="835.125" y="240" width="41.5625" height="40" as="geometry" />
        </mxCell>
        <mxCell id="_iUUSOAj2kYCMJGXZSjO-104" value="1" style="rounded=0;whiteSpace=wrap;html=1;" vertex="1" parent="1">
          <mxGeometry x="876.6875" y="240" width="41.5625" height="40" as="geometry" />
        </mxCell>
        <mxCell id="_iUUSOAj2kYCMJGXZSjO-105" value="1" style="rounded=0;whiteSpace=wrap;html=1;" vertex="1" parent="1">
          <mxGeometry x="918.25" y="240" width="41.5625" height="40" as="geometry" />
        </mxCell>
        <mxCell id="_iUUSOAj2kYCMJGXZSjO-106" value="1" style="rounded=0;whiteSpace=wrap;html=1;" vertex="1" parent="1">
          <mxGeometry x="959.8125" y="240" width="41.5625" height="40" as="geometry" />
        </mxCell>
        <mxCell id="_iUUSOAj2kYCMJGXZSjO-107" value="1" style="rounded=0;whiteSpace=wrap;html=1;" vertex="1" parent="1">
          <mxGeometry x="1001.375" y="240" width="41.5625" height="40" as="geometry" />
        </mxCell>
        <mxCell id="_iUUSOAj2kYCMJGXZSjO-108" value="1" style="rounded=0;whiteSpace=wrap;html=1;" vertex="1" parent="1">
          <mxGeometry x="1042.9375" y="240" width="41.5625" height="40" as="geometry" />
        </mxCell>
        <mxCell id="_iUUSOAj2kYCMJGXZSjO-109" value="1" style="rounded=0;whiteSpace=wrap;html=1;" vertex="1" parent="1">
          <mxGeometry x="1084.5" y="240" width="41.5625" height="40" as="geometry" />
        </mxCell>
        <mxCell id="_iUUSOAj2kYCMJGXZSjO-110" value="1" style="rounded=0;whiteSpace=wrap;html=1;" vertex="1" parent="1">
          <mxGeometry x="1126.0625" y="240" width="41.5625" height="40" as="geometry" />
        </mxCell>
        <mxCell id="_iUUSOAj2kYCMJGXZSjO-111" value="1" style="rounded=0;whiteSpace=wrap;html=1;" vertex="1" parent="1">
          <mxGeometry x="1167.625" y="240" width="41.5625" height="40" as="geometry" />
        </mxCell>
        <mxCell id="_iUUSOAj2kYCMJGXZSjO-112" value="1" style="rounded=0;whiteSpace=wrap;html=1;" vertex="1" parent="1">
          <mxGeometry x="1209.1875" y="240" width="41.5625" height="40" as="geometry" />
        </mxCell>
        <mxCell id="_iUUSOAj2kYCMJGXZSjO-113" value="1" style="rounded=0;whiteSpace=wrap;html=1;" vertex="1" parent="1">
          <mxGeometry x="1250.75" y="240" width="41.5625" height="40" as="geometry" />
        </mxCell>
        <mxCell id="_iUUSOAj2kYCMJGXZSjO-114" value="1" style="rounded=0;whiteSpace=wrap;html=1;" vertex="1" parent="1">
          <mxGeometry x="1292.3125" y="240" width="41.5625" height="40" as="geometry" />
        </mxCell>
        <mxCell id="_iUUSOAj2kYCMJGXZSjO-115" value="1" style="rounded=0;whiteSpace=wrap;html=1;" vertex="1" parent="1">
          <mxGeometry x="1333.875" y="240" width="41.5625" height="40" as="geometry" />
        </mxCell>
        <mxCell id="_iUUSOAj2kYCMJGXZSjO-116" value="1" style="rounded=0;whiteSpace=wrap;html=1;" vertex="1" parent="1">
          <mxGeometry x="1375.4375" y="240" width="41.5625" height="40" as="geometry" />
        </mxCell>
        <mxCell id="_iUUSOAj2kYCMJGXZSjO-1" value="1" style="rounded=0;whiteSpace=wrap;html=1;" vertex="1" parent="1">
          <mxGeometry x="90" y="240" width="41.5625" height="40" as="geometry" />
        </mxCell>
        <mxCell id="_iUUSOAj2kYCMJGXZSjO-2" value="1" style="rounded=0;whiteSpace=wrap;html=1;" vertex="1" parent="1">
          <mxGeometry x="131.5625" y="240" width="41.5625" height="40" as="geometry" />
        </mxCell>
        <mxCell id="_iUUSOAj2kYCMJGXZSjO-3" value="1" style="rounded=0;whiteSpace=wrap;html=1;" vertex="1" parent="1">
          <mxGeometry x="173.125" y="240" width="41.5625" height="40" as="geometry" />
        </mxCell>
        <mxCell id="_iUUSOAj2kYCMJGXZSjO-4" value="1" style="rounded=0;whiteSpace=wrap;html=1;" vertex="1" parent="1">
          <mxGeometry x="214.6875" y="240" width="41.5625" height="40" as="geometry" />
        </mxCell>
        <mxCell id="_iUUSOAj2kYCMJGXZSjO-79" value="1" style="rounded=0;whiteSpace=wrap;html=1;" vertex="1" parent="1">
          <mxGeometry x="256.25" y="240" width="41.5625" height="40" as="geometry" />
        </mxCell>
        <mxCell id="_iUUSOAj2kYCMJGXZSjO-80" value="1" style="rounded=0;whiteSpace=wrap;html=1;" vertex="1" parent="1">
          <mxGeometry x="297.8125" y="240" width="41.5625" height="40" as="geometry" />
        </mxCell>
        <mxCell id="_iUUSOAj2kYCMJGXZSjO-81" value="1" style="rounded=0;whiteSpace=wrap;html=1;" vertex="1" parent="1">
          <mxGeometry x="339.375" y="240" width="41.5625" height="40" as="geometry" />
        </mxCell>
        <mxCell id="_iUUSOAj2kYCMJGXZSjO-82" value="1" style="rounded=0;whiteSpace=wrap;html=1;" vertex="1" parent="1">
          <mxGeometry x="380.9375" y="240" width="41.5625" height="40" as="geometry" />
        </mxCell>
        <mxCell id="_iUUSOAj2kYCMJGXZSjO-83" value="1" style="rounded=0;whiteSpace=wrap;html=1;" vertex="1" parent="1">
          <mxGeometry x="422.5" y="240" width="41.5625" height="40" as="geometry" />
        </mxCell>
        <mxCell id="_iUUSOAj2kYCMJGXZSjO-84" value="1" style="rounded=0;whiteSpace=wrap;html=1;" vertex="1" parent="1">
          <mxGeometry x="464.0625" y="240" width="41.5625" height="40" as="geometry" />
        </mxCell>
        <mxCell id="_iUUSOAj2kYCMJGXZSjO-85" value="1" style="rounded=0;whiteSpace=wrap;html=1;" vertex="1" parent="1">
          <mxGeometry x="505.625" y="240" width="41.5625" height="40" as="geometry" />
        </mxCell>
        <mxCell id="_iUUSOAj2kYCMJGXZSjO-86" value="1" style="rounded=0;whiteSpace=wrap;html=1;" vertex="1" parent="1">
          <mxGeometry x="547.1875" y="240" width="41.5625" height="40" as="geometry" />
        </mxCell>
        <mxCell id="_iUUSOAj2kYCMJGXZSjO-87" value="1" style="rounded=0;whiteSpace=wrap;html=1;" vertex="1" parent="1">
          <mxGeometry x="588.75" y="240" width="41.5625" height="40" as="geometry" />
        </mxCell>
        <mxCell id="_iUUSOAj2kYCMJGXZSjO-88" value="1" style="rounded=0;whiteSpace=wrap;html=1;" vertex="1" parent="1">
          <mxGeometry x="630.3125" y="240" width="41.5625" height="40" as="geometry" />
        </mxCell>
        <mxCell id="_iUUSOAj2kYCMJGXZSjO-89" value="1" style="rounded=0;whiteSpace=wrap;html=1;" vertex="1" parent="1">
          <mxGeometry x="671.875" y="240" width="41.5625" height="40" as="geometry" />
        </mxCell>
        <mxCell id="_iUUSOAj2kYCMJGXZSjO-90" value="1" style="rounded=0;whiteSpace=wrap;html=1;" vertex="1" parent="1">
          <mxGeometry x="713.4375" y="240" width="41.5625" height="40" as="geometry" />
        </mxCell>
        <mxCell id="_iUUSOAj2kYCMJGXZSjO-117" value="0" style="rounded=0;whiteSpace=wrap;html=1;" vertex="1" parent="1">
          <mxGeometry x="90" y="320" width="41.5625" height="40" as="geometry" />
        </mxCell>
        <mxCell id="_iUUSOAj2kYCMJGXZSjO-118" value="0" style="rounded=0;whiteSpace=wrap;html=1;" vertex="1" parent="1">
          <mxGeometry x="131.5625" y="320" width="41.5625" height="40" as="geometry" />
        </mxCell>
        <mxCell id="_iUUSOAj2kYCMJGXZSjO-119" value="0" style="rounded=0;whiteSpace=wrap;html=1;" vertex="1" parent="1">
          <mxGeometry x="173.125" y="320" width="41.5625" height="40" as="geometry" />
        </mxCell>
        <mxCell id="_iUUSOAj2kYCMJGXZSjO-120" value="0" style="rounded=0;whiteSpace=wrap;html=1;" vertex="1" parent="1">
          <mxGeometry x="214.6875" y="320" width="41.5625" height="40" as="geometry" />
        </mxCell>
        <mxCell id="_iUUSOAj2kYCMJGXZSjO-121" value="0" style="rounded=0;whiteSpace=wrap;html=1;" vertex="1" parent="1">
          <mxGeometry x="257" y="320" width="41.56" height="40" as="geometry" />
        </mxCell>
        <mxCell id="_iUUSOAj2kYCMJGXZSjO-122" value="0" style="rounded=0;whiteSpace=wrap;html=1;" vertex="1" parent="1">
          <mxGeometry x="298.5625" y="320" width="41.5625" height="40" as="geometry" />
        </mxCell>
        <mxCell id="_iUUSOAj2kYCMJGXZSjO-123" value="0" style="rounded=0;whiteSpace=wrap;html=1;" vertex="1" parent="1">
          <mxGeometry x="340.125" y="320" width="41.5625" height="40" as="geometry" />
        </mxCell>
        <mxCell id="_iUUSOAj2kYCMJGXZSjO-124" value="0" style="rounded=0;whiteSpace=wrap;html=1;" vertex="1" parent="1">
          <mxGeometry x="381.6875" y="320" width="41.5625" height="40" as="geometry" />
        </mxCell>
        <mxCell id="_iUUSOAj2kYCMJGXZSjO-125" value="0" style="rounded=0;whiteSpace=wrap;html=1;" vertex="1" parent="1">
          <mxGeometry x="423.25" y="320" width="41.5625" height="40" as="geometry" />
        </mxCell>
        <mxCell id="_iUUSOAj2kYCMJGXZSjO-126" value="0" style="rounded=0;whiteSpace=wrap;html=1;" vertex="1" parent="1">
          <mxGeometry x="464.8125" y="320" width="41.5625" height="40" as="geometry" />
        </mxCell>
        <mxCell id="_iUUSOAj2kYCMJGXZSjO-127" value="0" style="rounded=0;whiteSpace=wrap;html=1;" vertex="1" parent="1">
          <mxGeometry x="506.375" y="320" width="41.5625" height="40" as="geometry" />
        </mxCell>
        <mxCell id="_iUUSOAj2kYCMJGXZSjO-128" value="0" style="rounded=0;whiteSpace=wrap;html=1;" vertex="1" parent="1">
          <mxGeometry x="547.9375" y="320" width="41.5625" height="40" as="geometry" />
        </mxCell>
        <mxCell id="_iUUSOAj2kYCMJGXZSjO-129" value="0" style="rounded=0;whiteSpace=wrap;html=1;" vertex="1" parent="1">
          <mxGeometry x="590.25" y="320" width="41.56" height="40" as="geometry" />
        </mxCell>
        <mxCell id="_iUUSOAj2kYCMJGXZSjO-130" value="0" style="rounded=0;whiteSpace=wrap;html=1;" vertex="1" parent="1">
          <mxGeometry x="631.8125" y="320" width="41.5625" height="40" as="geometry" />
        </mxCell>
        <mxCell id="_iUUSOAj2kYCMJGXZSjO-131" value="0" style="rounded=0;whiteSpace=wrap;html=1;" vertex="1" parent="1">
          <mxGeometry x="673.375" y="320" width="41.5625" height="40" as="geometry" />
        </mxCell>
        <mxCell id="_iUUSOAj2kYCMJGXZSjO-132" value="0" style="rounded=0;whiteSpace=wrap;html=1;" vertex="1" parent="1">
          <mxGeometry x="714.9375" y="320" width="41.5625" height="40" as="geometry" />
        </mxCell>
        <mxCell id="_iUUSOAj2kYCMJGXZSjO-133" value="0" style="rounded=0;whiteSpace=wrap;html=1;" vertex="1" parent="1">
          <mxGeometry x="756.5" y="320" width="41.5625" height="40" as="geometry" />
        </mxCell>
        <mxCell id="_iUUSOAj2kYCMJGXZSjO-134" value="0" style="rounded=0;whiteSpace=wrap;html=1;" vertex="1" parent="1">
          <mxGeometry x="798.0625" y="320" width="41.5625" height="40" as="geometry" />
        </mxCell>
        <mxCell id="_iUUSOAj2kYCMJGXZSjO-135" value="0" style="rounded=0;whiteSpace=wrap;html=1;" vertex="1" parent="1">
          <mxGeometry x="839.625" y="320" width="41.5625" height="40" as="geometry" />
        </mxCell>
        <mxCell id="_iUUSOAj2kYCMJGXZSjO-136" value="0" style="rounded=0;whiteSpace=wrap;html=1;" vertex="1" parent="1">
          <mxGeometry x="881.1875" y="320" width="41.5625" height="40" as="geometry" />
        </mxCell>
        <mxCell id="_iUUSOAj2kYCMJGXZSjO-137" value="0" style="rounded=0;whiteSpace=wrap;html=1;" vertex="1" parent="1">
          <mxGeometry x="923.5" y="320" width="41.56" height="40" as="geometry" />
        </mxCell>
        <mxCell id="_iUUSOAj2kYCMJGXZSjO-138" value="0" style="rounded=0;whiteSpace=wrap;html=1;" vertex="1" parent="1">
          <mxGeometry x="965.0625" y="320" width="41.5625" height="40" as="geometry" />
        </mxCell>
        <mxCell id="_iUUSOAj2kYCMJGXZSjO-139" value="0" style="rounded=0;whiteSpace=wrap;html=1;" vertex="1" parent="1">
          <mxGeometry x="1006.625" y="320" width="41.5625" height="40" as="geometry" />
        </mxCell>
        <mxCell id="_iUUSOAj2kYCMJGXZSjO-140" value="0" style="rounded=0;whiteSpace=wrap;html=1;" vertex="1" parent="1">
          <mxGeometry x="1048.1875" y="320" width="41.5625" height="40" as="geometry" />
        </mxCell>
        <mxCell id="_iUUSOAj2kYCMJGXZSjO-141" value="0" style="rounded=0;whiteSpace=wrap;html=1;" vertex="1" parent="1">
          <mxGeometry x="1089.75" y="320" width="41.5625" height="40" as="geometry" />
        </mxCell>
        <mxCell id="_iUUSOAj2kYCMJGXZSjO-142" value="0" style="rounded=0;whiteSpace=wrap;html=1;" vertex="1" parent="1">
          <mxGeometry x="1131.3125" y="320" width="41.5625" height="40" as="geometry" />
        </mxCell>
        <mxCell id="_iUUSOAj2kYCMJGXZSjO-143" value="0" style="rounded=0;whiteSpace=wrap;html=1;" vertex="1" parent="1">
          <mxGeometry x="1172.875" y="320" width="41.5625" height="40" as="geometry" />
        </mxCell>
        <mxCell id="_iUUSOAj2kYCMJGXZSjO-144" value="0" style="rounded=0;whiteSpace=wrap;html=1;" vertex="1" parent="1">
          <mxGeometry x="1214.4375" y="320" width="41.5625" height="40" as="geometry" />
        </mxCell>
        <mxCell id="_iUUSOAj2kYCMJGXZSjO-145" value="0" style="rounded=0;whiteSpace=wrap;html=1;" vertex="1" parent="1">
          <mxGeometry x="1256.75" y="320" width="41.56" height="40" as="geometry" />
        </mxCell>
        <mxCell id="_iUUSOAj2kYCMJGXZSjO-146" value="0" style="rounded=0;whiteSpace=wrap;html=1;" vertex="1" parent="1">
          <mxGeometry x="1298.3125" y="320" width="41.5625" height="40" as="geometry" />
        </mxCell>
        <mxCell id="_iUUSOAj2kYCMJGXZSjO-147" value="0" style="rounded=0;whiteSpace=wrap;html=1;" vertex="1" parent="1">
          <mxGeometry x="1339.875" y="320" width="41.5625" height="40" as="geometry" />
        </mxCell>
        <mxCell id="_iUUSOAj2kYCMJGXZSjO-148" value="0" style="rounded=0;whiteSpace=wrap;html=1;" vertex="1" parent="1">
          <mxGeometry x="1381.4375" y="320" width="41.5625" height="40" as="geometry" />
        </mxCell>
        <mxCell id="_iUUSOAj2kYCMJGXZSjO-149" value="" style="shape=curlyBracket;whiteSpace=wrap;html=1;rounded=1;flipH=1;rotation=-180;direction=south;" vertex="1" parent="1">
          <mxGeometry x="103.28" y="390" width="1308" height="20" as="geometry" />
        </mxCell>
        <mxCell id="_iUUSOAj2kYCMJGXZSjO-150" value="32bit" style="text;html=1;align=center;verticalAlign=middle;resizable=0;points=[];autosize=1;strokeColor=none;fillColor=none;fontSize=16;" vertex="1" parent="1">
          <mxGeometry x="732.28" y="410" width="50" height="20" as="geometry" />
        </mxCell>
        <mxCell id="_iUUSOAj2kYCMJGXZSjO-151" value="SIGINT" style="shape=callout;whiteSpace=wrap;html=1;perimeter=calloutPerimeter;size=30;position=0.24;position2=0.15;fontSize=16;" vertex="1" parent="1">
          <mxGeometry x="131.56" y="110" width="120" height="130" as="geometry" />
        </mxCell>
      </root>
    </mxGraphModel>
  </diagram>
</mxfile>
